<?xml version="1.0" standalone="no"?>
<!DOCTYPE svg PUBLIC "-//W3C//DTD SVG 20010904//EN"
 "http://www.w3.org/TR/2001/REC-SVG-20010904/DTD/svg10.dtd">
<svg version="1.0" xmlns="http://www.w3.org/2000/svg"
 width="500.000000pt" height="500.000000pt" viewBox="0 0 500.000000 500.000000"
 preserveAspectRatio="xMidYMid meet">

<g transform="translate(0.000000,500.000000) scale(0.100000,-0.100000)"
fill="#000000" stroke="none">
<path d="M2115 3843 c-161 -36 -384 -179 -502 -322 -178 -217 -272 -406 -414
-834 -78 -235 -117 -334 -168 -425 -104 -181 -288 -322 -422 -322 -72 0 -98
19 -106 78 -5 36 -3 42 13 42 11 0 39 -12 63 -26 52 -29 64 -27 91 18 25 41
25 79 1 109 -16 20 -28 24 -74 24 -47 0 -61 -5 -93 -31 -84 -68 -105 -165 -48
-225 35 -36 114 -63 165 -56 134 18 366 189 464 342 76 119 226 466 317 734
88 259 153 390 262 527 153 192 373 298 551 264 87 -16 110 -41 109 -120 -1
-49 -9 -74 -48 -153 -55 -112 -127 -195 -226 -262 -80 -55 -92 -81 -32 -72 51
9 168 68 218 111 86 73 155 214 169 343 9 80 -13 129 -95 207 -58 55 -59 56
-117 55 -32 -1 -67 -3 -78 -6z"/>
<path d="M3509 3171 c-171 -67 -439 -240 -564 -366 -114 -113 -169 -195 -286
-431 -119 -237 -145 -264 -255 -264 -38 0 -54 21 -54 70 0 39 -39 80 -76 80
-58 0 -201 -98 -247 -170 -17 -27 -17 -28 9 -59 36 -43 55 -39 82 18 28 59 86
121 112 121 32 0 26 -53 -11 -95 -39 -44 -34 -76 15 -99 40 -19 91 -11 163 24
59 28 73 26 73 -10 0 -46 -79 -179 -207 -347 -19 -24 -22 -33 -11 -33 20 0
188 168 248 249 64 86 137 229 190 371 58 158 141 329 193 403 110 154 298
289 336 243 22 -26 -27 -114 -169 -306 -42 -58 -82 -119 -88 -137 -6 -18 -8
-64 -5 -105 7 -89 -3 -113 -86 -207 -126 -142 -153 -190 -115 -205 25 -9 49 9
108 82 29 37 69 81 87 99 45 42 136 83 202 90 74 8 83 -6 79 -114 -2 -68 0
-83 12 -83 19 0 59 52 85 110 59 130 -8 189 -196 175 -65 -5 -94 -4 -92 3 2 6
38 35 79 64 80 58 93 81 66 120 -37 53 -12 187 49 259 13 17 38 60 55 97 65
141 84 165 200 247 89 63 114 89 107 110 -8 19 -31 18 -88 -4z"/>
<path d="M2266 3087 c-140 -77 -235 -221 -449 -677 -24 -52 -70 -147 -101
-211 l-57 -116 -107 -37 c-124 -42 -204 -55 -227 -36 -38 32 -6 79 105 151 93
60 110 82 110 145 0 56 5 57 -137 -28 -136 -81 -187 -131 -208 -201 -16 -56
-9 -102 18 -119 20 -13 167 -9 267 7 192 32 296 75 390 162 61 56 110 138 110
183 0 33 41 95 121 186 117 132 196 269 229 400 30 116 24 216 -13 213 -7 0
-30 -10 -51 -22z m22 -136 c9 -61 -158 -333 -295 -478 -81 -87 -94 -66 -40 63
49 119 100 210 174 309 65 86 125 139 147 132 6 -2 12 -14 14 -26z"/>
<path d="M3490 2678 c-36 -60 -18 -138 33 -138 22 0 55 45 67 91 15 54 0 79
-45 79 -29 0 -39 -6 -55 -32z"/>
<path d="M4280 2293 c-41 -13 -104 -33 -140 -45 -36 -11 -91 -34 -122 -49 -32
-16 -64 -29 -72 -29 -20 0 -35 29 -42 85 -9 60 -31 60 -103 -3 -66 -57 -141
-112 -153 -112 -22 0 -2 35 52 94 62 65 65 84 12 71 -60 -15 -150 -106 -192
-194 -26 -52 -25 -67 5 -87 22 -14 29 -15 67 -1 24 8 72 33 107 56 l65 41 37
-36 c50 -49 81 -48 192 11 70 36 92 43 103 34 8 -6 14 -18 14 -25 0 -23 39
-16 87 17 25 17 59 32 76 33 32 1 32 1 32 -49 l0 -50 42 1 c68 1 112 56 77 95
-12 13 -20 43 -23 92 -7 86 -9 87 -121 50z"/>
</g>
</svg>
